<svg width="59" height="31" viewBox="0 0 59 31" fill="none" xmlns="http://www.w3.org/2000/svg">
<path d="M2.049 16.424H1.761C1.59033 16.2533 1.409 16.0933 1.217 15.944C1.025 15.7947 0.950333 15.56 0.992999 15.24C0.992999 15.1973 1.01433 15.1653 1.057 15.144C1.121 15.1227 1.153 15.08 1.153 15.016C1.49433 14.4827 1.78233 14.2373 2.017 14.28C2.273 14.3013 2.45433 14.4507 2.561 14.728C2.66767 15.0053 2.67833 15.3253 2.593 15.688C2.529 16.0507 2.34767 16.296 2.049 16.424ZM27.7405 15.272C28.2312 15.2933 28.7218 15.2933 29.2125 15.272C29.7032 15.2507 30.1512 15.2507 30.5565 15.272C30.9832 15.272 31.3458 15.3147 31.6445 15.4C31.9645 15.464 32.1992 15.592 32.3485 15.784C31.4738 15.72 30.6312 15.752 29.8205 15.88C29.0312 15.9867 28.2952 16.1253 27.6125 16.296C27.3778 17.8747 27.2178 19.1013 27.1325 19.976C27.0472 20.8293 26.9938 21.4907 26.9725 21.96C26.9512 22.4507 26.9512 22.8347 26.9725 23.112C26.9938 23.3893 26.9938 23.72 26.9725 24.104C26.9512 24.6587 26.9512 25.2027 26.9725 25.736C26.9938 26.2907 27.0472 26.8133 27.1325 27.304C27.2178 27.7947 27.3458 28.2427 27.5165 28.648C27.6872 29.0533 27.9218 29.3947 28.2205 29.672C28.4552 29.6293 28.6472 29.5333 28.7965 29.384C28.9672 29.2347 29.1058 29.0747 29.2125 28.904C29.4045 28.7973 29.5325 28.6373 29.5965 28.424C29.6605 28.2107 29.8098 28.0827 30.0445 28.04C30.0018 28.4667 29.9058 28.84 29.7565 29.16C29.6285 29.5013 29.5432 29.8853 29.5005 30.312C29.2445 30.5467 28.9778 30.664 28.7005 30.664C28.4232 30.6853 28.1458 30.632 27.8685 30.504C27.6125 30.3973 27.3672 30.2373 27.1325 30.024C26.9192 29.832 26.7485 29.6507 26.6205 29.48C26.2152 28.712 25.9378 27.7947 25.7885 26.728C25.6392 25.6613 25.5645 24.5413 25.5645 23.368C25.5645 22.1947 25.6072 21.0213 25.6925 19.848C25.7992 18.6747 25.9058 17.5867 26.0125 16.584C25.1805 16.7333 24.3378 16.8827 23.4845 17.032C22.6525 17.16 21.8312 17.3093 21.0205 17.48C20.6578 18.4613 20.2952 19.4427 19.9325 20.424C19.5698 21.384 19.2712 22.4293 19.0365 23.56C18.9512 23.7093 18.8338 23.8587 18.6845 24.008C18.5352 24.1787 18.3645 24.3067 18.1725 24.392C17.9805 24.4987 17.7778 24.552 17.5645 24.552C17.3298 24.5733 17.0952 24.52 16.8605 24.392C17.0952 23.176 17.4152 22.056 17.8205 21.032C18.2258 20.008 18.6098 18.952 18.9725 17.864C18.3965 17.9493 17.8418 18.056 17.3085 18.184C16.7538 18.2907 16.2098 18.3973 15.6765 18.504C15.5058 18.3973 15.3565 18.2053 15.2285 17.928C15.1005 17.6507 15.1005 17.3627 15.2285 17.064C16.0178 16.9573 16.8072 16.8507 17.5965 16.744C18.3858 16.6373 19.1005 16.456 19.7405 16.2C20.7005 13.8107 21.7458 11.4533 22.8765 9.128C24.0285 6.80267 25.2765 4.59467 26.6205 2.504C26.8552 2.16267 27.0898 1.8 27.3245 1.416C27.5592 1.032 27.8578 0.786665 28.2205 0.679998C28.2418 0.658665 28.2845 0.626666 28.3485 0.584C28.5832 0.605333 28.7645 0.669333 28.8925 0.775999C29.0205 0.882666 29.1592 0.989332 29.3085 1.096C29.4365 1.416 29.5112 1.74667 29.5325 2.088C29.5752 2.42933 29.5752 2.83467 29.5325 3.304C29.4898 3.77333 29.4045 4.328 29.2765 4.968C29.1698 5.608 29.0312 6.408 28.8605 7.368C28.7112 8.30667 28.5405 9.42667 28.3485 10.728C28.1565 12.008 27.9538 13.5227 27.7405 15.272ZM21.7245 16.008C22.4925 15.944 23.2392 15.8693 23.9645 15.784C24.6898 15.6773 25.4365 15.5813 26.2045 15.496C26.2898 14.344 26.4178 13.2347 26.5885 12.168C26.7592 11.08 26.9405 10.0027 27.1325 8.936C27.3245 7.848 27.4952 6.77067 27.6445 5.704C27.8152 4.63733 27.9432 3.54933 28.0285 2.44C26.7485 4.488 25.5858 6.64267 24.5405 8.904C23.5165 11.1653 22.5778 13.5333 21.7245 16.008ZM36.8695 13.896C38.4055 14.3867 39.6108 15.272 40.4855 16.552C41.3815 17.8107 41.7655 19.496 41.6375 21.608C41.5735 22.5893 41.3282 23.5067 40.9015 24.36C40.4748 25.2133 39.9202 25.9493 39.2375 26.568C38.5548 27.1867 37.7868 27.7307 36.9335 28.2C36.0802 28.6693 35.1842 28.9147 34.2455 28.936C33.7335 28.936 33.2748 28.872 32.8695 28.744C32.4855 28.6373 32.1228 28.488 31.7815 28.296C31.4615 28.104 31.1628 27.88 30.8855 27.624C30.5868 27.368 30.2882 27.112 29.9895 26.856C29.8188 26.6 29.6588 26.3333 29.5095 26.056C29.3388 25.8 29.1788 25.5333 29.0295 25.256C28.9228 24.3173 28.9762 23.4747 29.1895 22.728C29.3815 22.0027 29.6268 21.3307 29.9255 20.712C29.8402 20.5413 29.7548 20.3813 29.6695 20.232C29.5842 20.0827 29.5095 19.912 29.4455 19.72C29.8722 17.608 30.4482 15.6667 31.1735 13.896C31.9202 12.1253 32.7522 10.4293 33.6695 8.808C33.7335 8.616 33.7548 8.41333 33.7335 8.2C33.7122 7.98667 33.6802 7.784 33.6375 7.592C33.6162 7.37867 33.5948 7.18667 33.5735 7.016C33.5735 6.824 33.6055 6.65333 33.6695 6.504C33.9042 6.44 34.1068 6.472 34.2775 6.6C34.4482 6.70667 34.5762 6.84533 34.6615 7.016C35.4508 5.97067 36.2615 4.936 37.0935 3.912C37.9468 2.888 38.9388 2.01333 40.0695 1.288C40.3255 1.20267 40.5922 1.13867 40.8695 1.096C41.1682 1.05333 41.4562 1.05333 41.7335 1.096C42.0322 1.11733 42.2988 1.18133 42.5335 1.288C42.7895 1.39467 42.9922 1.53333 43.1415 1.704C43.7815 2.49333 44.0588 3.47467 43.9735 4.648C43.9095 5.82133 43.5682 7.016 42.9495 8.232C42.3522 9.42667 41.5202 10.5467 40.4535 11.592C39.4082 12.616 38.2135 13.384 36.8695 13.896ZM41.8615 1.736C41.1788 1.97067 40.4962 2.38667 39.8135 2.984C39.1522 3.58133 38.5122 4.25333 37.8935 5C37.2962 5.74667 36.7415 6.51467 36.2295 7.304C35.7175 8.09333 35.2908 8.808 34.9495 9.448C34.8215 10.856 34.5548 12.136 34.1495 13.288C33.7655 14.4187 33.3815 15.5493 32.9975 16.68C33.2962 16.552 33.6055 16.36 33.9255 16.104C34.2455 15.8267 34.6402 15.6667 35.1095 15.624C33.9148 16.648 32.9015 17.8427 32.0695 19.208C31.2588 20.552 30.6508 22.1307 30.2455 23.944C30.0962 25.352 30.3415 26.3653 30.9815 26.984C31.6215 27.624 32.6135 27.88 33.9575 27.752C35.1095 27.6453 36.1762 27.2187 37.1575 26.472C38.1602 25.7253 38.9495 24.7973 39.5255 23.688C40.1228 22.5787 40.4322 21.3627 40.4535 20.04C40.4962 18.696 40.1228 17.3733 39.3335 16.072C39.0988 15.9013 38.8748 15.7307 38.6615 15.56C38.4695 15.3893 38.2242 15.2293 37.9255 15.08C37.6268 14.9307 37.3068 14.8133 36.9655 14.728C36.6455 14.6427 36.3362 14.5467 36.0375 14.44C35.7602 14.3333 35.5148 14.1947 35.3015 14.024C35.0882 13.832 34.9495 13.5547 34.8855 13.192C35.0988 12.9573 35.3442 12.8187 35.6215 12.776C35.8988 12.7333 36.1655 12.6693 36.4215 12.584C37.2322 12.2853 37.9255 11.88 38.5015 11.368C39.0988 10.8347 39.6748 10.312 40.2295 9.8C40.4855 9.416 40.7522 9.01067 41.0295 8.584C41.3282 8.15733 41.6055 7.70933 41.8615 7.24C42.1175 6.77067 42.3415 6.28 42.5335 5.768C42.7255 5.23467 42.8428 4.66933 42.8855 4.072C42.9068 3.64533 42.8535 3.208 42.7255 2.76C42.6188 2.312 42.4375 1.97067 42.1815 1.736H41.8615ZM57.949 16.424H57.661C57.4903 16.2533 57.309 16.0933 57.117 15.944C56.925 15.7947 56.8503 15.56 56.893 15.24C56.893 15.1973 56.9143 15.1653 56.957 15.144C57.021 15.1227 57.053 15.08 57.053 15.016C57.3943 14.4827 57.6823 14.2373 57.917 14.28C58.173 14.3013 58.3543 14.4507 58.461 14.728C58.5677 15.0053 58.5783 15.3253 58.493 15.688C58.429 16.0507 58.2477 16.296 57.949 16.424Z" fill="black"/>
</svg>
