<svg width="59" height="57" viewBox="0 0 59 57" fill="none" xmlns="http://www.w3.org/2000/svg">
<path d="M14.586 36.154C13.662 36.154 12.9727 35.9267 12.518 35.472C12.078 35.0027 11.858 34.3573 11.858 33.536C11.858 32.876 12.034 32.3333 12.386 31.908C12.7527 31.4827 13.178 31.1453 13.662 30.896C14.1607 30.6467 14.8133 30.3827 15.62 30.104C16.4413 29.8253 17.05 29.5687 17.446 29.334C17.842 29.0993 18.04 28.784 18.04 28.388V27.024C18.04 26.1733 17.8567 25.594 17.49 25.286C17.138 24.9633 16.6393 24.802 15.994 24.802C14.9673 24.802 14.2413 25.066 13.816 25.594C14.1093 25.6673 14.3513 25.8213 14.542 26.056C14.7473 26.2907 14.85 26.584 14.85 26.936C14.85 27.3027 14.7327 27.596 14.498 27.816C14.2633 28.0213 13.9627 28.124 13.596 28.124C13.1853 28.124 12.8773 27.9993 12.672 27.75C12.4667 27.486 12.364 27.1707 12.364 26.804C12.364 26.452 12.4447 26.1587 12.606 25.924C12.782 25.6893 13.0387 25.4547 13.376 25.22C13.728 24.9707 14.1753 24.7653 14.718 24.604C15.2607 24.4427 15.8547 24.362 16.5 24.362C17.644 24.362 18.5093 24.6333 19.096 25.176C19.4627 25.5133 19.7047 25.924 19.822 26.408C19.954 26.8773 20.02 27.5007 20.02 28.278V34.394C20.02 34.7607 20.0713 35.0247 20.174 35.186C20.2767 35.3473 20.4527 35.428 20.702 35.428C20.878 35.428 21.0393 35.3913 21.186 35.318C21.3473 35.23 21.516 35.1127 21.692 34.966L21.934 35.34C21.5527 35.6333 21.2227 35.846 20.944 35.978C20.68 36.0953 20.3427 36.154 19.932 36.154C19.228 36.154 18.7367 35.978 18.458 35.626C18.1793 35.274 18.04 34.7973 18.04 34.196C17.6 34.9293 17.094 35.4427 16.522 35.736C15.95 36.0147 15.3047 36.154 14.586 36.154ZM15.554 35.274C16.522 35.274 17.3507 34.7167 18.04 33.602V29.29C17.908 29.4953 17.7247 29.664 17.49 29.796C17.2553 29.928 16.896 30.104 16.412 30.324C15.8547 30.5587 15.4 30.786 15.048 31.006C14.7107 31.2113 14.4173 31.4973 14.168 31.864C13.9187 32.2307 13.794 32.7 13.794 33.272C13.794 33.932 13.9553 34.4307 14.278 34.768C14.6007 35.1053 15.026 35.274 15.554 35.274ZM30.0597 40.29H29.1797V17.124H30.0597V40.29ZM44.7052 24.362C45.9519 24.362 46.9565 24.8753 47.7192 25.902C48.4965 26.9287 48.8852 28.41 48.8852 30.346C48.8852 31.622 48.6652 32.7073 48.2252 33.602C47.7852 34.4967 47.1912 35.1713 46.4432 35.626C45.7099 36.0807 44.8885 36.308 43.9792 36.308C43.4365 36.308 42.9085 36.198 42.3952 35.978C41.8965 35.758 41.4565 35.4427 41.0752 35.032L39.5132 36.352L39.1392 36.198C39.2419 35.8313 39.2932 35.406 39.2932 34.922V21.414C39.2932 20.7393 39.1685 20.248 38.9192 19.94C38.6699 19.632 38.2372 19.478 37.6212 19.478V19.016C38.0905 19.06 38.5452 19.082 38.9852 19.082C39.9092 19.082 40.6719 18.9793 41.2732 18.774V26.716C41.5959 25.968 42.0579 25.3887 42.6592 24.978C43.2752 24.5673 43.9572 24.362 44.7052 24.362ZM43.8032 35.802C44.7859 35.802 45.5192 35.362 46.0032 34.482C46.5019 33.5873 46.7512 32.2087 46.7512 30.346C46.7512 28.5567 46.5312 27.222 46.0912 26.342C45.6512 25.462 44.9765 25.022 44.0672 25.022C43.4512 25.022 42.8865 25.264 42.3732 25.748C41.8599 26.2173 41.4932 26.8847 41.2732 27.75V34.724C41.6105 35.076 41.9992 35.3473 42.4392 35.538C42.8792 35.714 43.3339 35.802 43.8032 35.802Z" fill="black"/>
<circle cx="30" cy="27" r="26.6" stroke="#CEB983" stroke-width="0.8"/>
<circle cx="27" cy="30" r="26.6" stroke="#CEB983" stroke-width="0.8"/>
<circle cx="32" cy="30" r="26.6" stroke="#CEB983" stroke-width="0.8"/>
<circle cx="5.5" cy="9.5" r="0.5" fill="#CEB983"/>
<circle cx="49.5" cy="5.5" r="0.5" fill="#CEB983"/>
<circle cx="37.5" cy="49.5" r="0.5" fill="#CEB983"/>
<circle cx="43.5" cy="56.5" r="0.5" fill="#CEB983"/>
<circle cx="47.5" cy="49.5" r="0.5" fill="#CEB983"/>
<circle cx="43.5" cy="46.5" r="0.5" fill="#CEB983"/>
<circle cx="43.5" cy="0.5" r="0.5" fill="#CEB983"/>
<circle cx="8.5" cy="12.5" r="0.5" fill="#CEB983"/>
<circle cx="2.5" cy="16.5" r="0.5" fill="#CEB983"/>
<circle cx="8.5" cy="22.5" r="0.5" fill="#CEB983"/>
<circle cx="48.5" cy="11.5" r="0.5" fill="#CEB983"/>
<circle cx="55.5" cy="10.5" r="0.5" fill="#CEB983"/>
</svg>
