<svg width="58" height="58" viewBox="0 0 58 58" fill="none" xmlns="http://www.w3.org/2000/svg">
<path d="M17.912 36.168C16.904 36.168 16.152 35.92 15.656 35.424C15.176 34.912 14.936 34.208 14.936 33.312C14.936 32.592 15.128 32 15.512 31.536C15.912 31.072 16.376 30.704 16.904 30.432C17.448 30.16 18.16 29.872 19.04 29.568C19.936 29.264 20.6 28.984 21.032 28.728C21.464 28.472 21.68 28.128 21.68 27.696V26.208C21.68 25.28 21.48 24.648 21.08 24.312C20.696 23.96 20.152 23.784 19.448 23.784C18.328 23.784 17.536 24.072 17.072 24.648C17.392 24.728 17.656 24.896 17.864 25.152C18.088 25.408 18.2 25.728 18.2 26.112C18.2 26.512 18.072 26.832 17.816 27.072C17.56 27.296 17.232 27.408 16.832 27.408C16.384 27.408 16.048 27.272 15.824 27C15.6 26.712 15.488 26.368 15.488 25.968C15.488 25.584 15.576 25.264 15.752 25.008C15.944 24.752 16.224 24.496 16.592 24.24C16.976 23.968 17.464 23.744 18.056 23.568C18.648 23.392 19.296 23.304 20 23.304C21.248 23.304 22.192 23.6 22.832 24.192C23.232 24.56 23.496 25.008 23.624 25.536C23.768 26.048 23.84 26.728 23.84 27.576V34.248C23.84 34.648 23.896 34.936 24.008 35.112C24.12 35.288 24.312 35.376 24.584 35.376C24.776 35.376 24.952 35.336 25.112 35.256C25.288 35.16 25.472 35.032 25.664 34.872L25.928 35.28C25.512 35.6 25.152 35.832 24.848 35.976C24.56 36.104 24.192 36.168 23.744 36.168C22.976 36.168 22.44 35.976 22.136 35.592C21.832 35.208 21.68 34.688 21.68 34.032C21.2 34.832 20.648 35.392 20.024 35.712C19.4 36.016 18.696 36.168 17.912 36.168ZM18.968 35.208C20.024 35.208 20.928 34.6 21.68 33.384V28.68C21.536 28.904 21.336 29.088 21.08 29.232C20.824 29.376 20.432 29.568 19.904 29.808C19.296 30.064 18.8 30.312 18.416 30.552C18.048 30.776 17.728 31.088 17.456 31.488C17.184 31.888 17.048 32.4 17.048 33.024C17.048 33.744 17.224 34.288 17.576 34.656C17.928 35.024 18.392 35.208 18.968 35.208ZM29.0971 40.68H28.1371V15.408H29.0971V40.68ZM39.0974 23.304C40.4574 23.304 41.5534 23.864 42.3854 24.984C43.2334 26.104 43.6574 27.72 43.6574 29.832C43.6574 31.224 43.4174 32.408 42.9374 33.384C42.4574 34.36 41.8094 35.096 40.9934 35.592C40.1934 36.088 39.2974 36.336 38.3054 36.336C37.7134 36.336 37.1374 36.216 36.5774 35.976C36.0334 35.736 35.5534 35.392 35.1374 34.944L33.4334 36.384L33.0254 36.216C33.1374 35.816 33.1934 35.352 33.1934 34.824V20.088C33.1934 19.352 33.0574 18.816 32.7854 18.48C32.5134 18.144 32.0414 17.976 31.3694 17.976V17.472C31.8814 17.52 32.3774 17.544 32.8574 17.544C33.8654 17.544 34.6974 17.432 35.3534 17.208V25.872C35.7054 25.056 36.2094 24.424 36.8654 23.976C37.5374 23.528 38.2814 23.304 39.0974 23.304ZM38.1134 35.784C39.1854 35.784 39.9854 35.304 40.5134 34.344C41.0574 33.368 41.3294 31.864 41.3294 29.832C41.3294 27.88 41.0894 26.424 40.6094 25.464C40.1294 24.504 39.3934 24.024 38.4014 24.024C37.7294 24.024 37.1134 24.288 36.5534 24.816C35.9934 25.328 35.5934 26.056 35.3534 27V34.608C35.7214 34.992 36.1454 35.288 36.6254 35.496C37.1054 35.688 37.6014 35.784 38.1134 35.784Z" fill="#333333"/>
<circle cx="27" cy="28" r="26.5" stroke="#ECD69D"/>
<circle cx="31" cy="31" r="26.5" stroke="#ECD69D"/>
<circle cx="31" cy="27" r="26.5" stroke="#ECD69D"/>
</svg>
